<svg xmlns="http://www.w3.org/2000/svg" width="241" height="54"><path id="Logo" d="M237.919 101.4l28.619-.252-20.555-35.19-16.792 29.93-4.52.04 19.305-33.566-3.229-5.527L215 101.6l17.439-.153 13.641-24.311 10.81 18.508-16.649.146zm44.757 5.589l-31.309-53.764.37-.219 31.31 53.763zm2.808-33.178v-.052a9.528 9.528 0 0119.055-.052v.052a9.528 9.528 0 01-19.055.052zm14.051 0v-.052a4.672 4.672 0 00-4.549-4.912 4.582 4.582 0 00-4.473 4.859v.052a4.667 4.667 0 004.524 4.912 4.586 4.586 0 004.498-4.859zm10.089-9.147h4.576l7.278 9.615v-9.615h4.852v18.19h-4.3l-7.556-9.979v9.979h-4.852v-18.19zm26.691 4.418h-5.307v-4.418h15.517v4.418h-5.307v13.772h-4.9V69.081zm14.99-4.418h4.929v18.19h-4.929v-18.19zm10.086 9.147v-.052a9.216 9.216 0 019.325-9.459 8.589 8.589 0 017.506 3.794l-3.69 2.936a4.7 4.7 0 00-3.866-2.131c-2.476 0-4.22 2.157-4.22 4.807v.052c0 2.729 1.744 4.86 4.22 4.86a4.8 4.8 0 003.993-2.209l3.69 2.7a8.857 8.857 0 01-7.835 4.106 9.112 9.112 0 01-9.123-9.404zm21.586-9.147h14.229v4.288h-9.376v2.754h8.491v3.976h-8.491v2.885h9.5v4.288h-14.353V64.664zm19.388 0h4.9v13.773h8.567v4.418h-13.47V64.664zm18.1 0h4.9v13.773h8.568v4.418h-13.47V64.664zm16.481 9.147v-.052A9.528 9.528 0 01456 73.707v.052a9.528 9.528 0 01-19.055.052zm14.051 0v-.052a4.672 4.672 0 00-4.549-4.912 4.582 4.582 0 00-4.473 4.859v.052a4.667 4.667 0 004.524 4.912A4.586 4.586 0 00451 73.811zm-184.573 4.671v-6.023l4.5 7.069h.1l4.524-7.121v10.447h4.877v-18.19h-5.181l-4.22 7.042-4.22-7.042h-5.181v5.574zm20.07 14.225h.678v6.061h-.678v-6.061zm5.875 0h.636l3.786 4.857v-4.857h.661v6.061h-.541L293.03 93.8v4.97h-.661v-6.063zm11.811.631h-2.018v-.631h4.722v.631h-2.018v5.429h-.686v-5.429zm7.414-.631h4.345v.623h-3.666v2.07h3.279v.623h-3.279v2.121h3.708v.624h-4.387v-6.061zm9.191 0h2.585a2.358 2.358 0 011.708.606 1.685 1.685 0 01.463 1.194v.017a1.767 1.767 0 01-1.63 1.766l1.845 2.477h-.833l-1.742-2.355h-1.717v2.355h-.679v-6.06zm2.524 3.091a1.335 1.335 0 001.545-1.246v-.019a1.279 1.279 0 00-1.536-1.2h-1.854V95.8h1.845zm7.123-3.091h.636l3.786 4.857v-4.857h.661v6.061h-.541l-3.881-4.97v4.97h-.661v-6.061zm12.446-.044h.635l2.739 6.1h-.73l-.7-1.6h-3.271l-.713 1.6h-.695zm1.674 3.888l-1.365-3.092-1.374 3.092h2.739zm7.14-3.213h-2.018v-.631h4.726v.631h-2.018v5.429h-.686v-5.429zm7.475-.631h.677v6.061h-.677v-6.061zm5.609 3.047v-.017a3.066 3.066 0 116.13-.018v.018a3.066 3.066 0 11-6.13.017zm5.426 0v-.017a2.4 2.4 0 00-2.37-2.5 2.372 2.372 0 00-2.352 2.485v.018a2.4 2.4 0 002.37 2.5 2.372 2.372 0 002.35-2.486zm5.577-3.047h.636l3.786 4.857v-4.857h.661v6.061h-.541L376.44 93.8v4.97h-.661v-6.063zm12.446-.044h.636l2.738 6.1h-.729l-.7-1.6h-3.27l-.713 1.6h-.695zm1.675 3.888l-1.366-3.092-1.373 3.092h2.739zm6.324-3.844h.676v5.428h3.382v.633h-4.061v-6.061zm14.5 3.047v-.017a3.03 3.03 0 013.013-3.135 3.146 3.146 0 012.24.806l-.437.519a2.549 2.549 0 00-1.828-.692 2.359 2.359 0 00-2.285 2.485v.018a2.334 2.334 0 002.379 2.519 2.817 2.817 0 001.734-.606v-1.508h-1.828v-.614h2.48v2.415a3.621 3.621 0 01-2.413.926 2.959 2.959 0 01-3.054-3.116zm10.436-3.047h2.585a2.358 2.358 0 011.708.606 1.682 1.682 0 01.464 1.194v.017a1.767 1.767 0 01-1.631 1.766l1.845 2.477h-.831l-1.742-2.355h-1.718v2.355h-.679v-6.06zm2.524 3.091a1.336 1.336 0 001.546-1.246v-.019a1.28 1.28 0 00-1.537-1.2h-1.853V95.8h1.845zm6.857-.044v-.017a3.065 3.065 0 116.129-.018v.018a3.065 3.065 0 11-6.128.017zm5.425 0v-.017a2.4 2.4 0 00-2.369-2.5 2.372 2.372 0 00-2.353 2.485v.018a2.4 2.4 0 002.37 2.5 2.372 2.372 0 002.353-2.486zm5.484.476v-3.523h.678v3.48a1.777 1.777 0 001.837 2.043 1.736 1.736 0 001.812-2v-3.523h.678v3.472a2.507 2.507 0 11-5.004.052zm10.05-3.523h2.25a1.961 1.961 0 012.25 1.922v.017a2.078 2.078 0 01-2.361 1.983h-1.459v2.139h-.68v-6.061zm2.164 3.3a1.429 1.429 0 001.648-1.334v-.018a1.362 1.362 0 00-1.614-1.316h-1.518V96h1.485z" transform="translate(-215 -53)" fill="#fff" fill-rule="evenodd"/></svg>